<svg width="320" height="90" viewBox="0 0 320 90" fill="none" xmlns="http://www.w3.org/2000/svg">
<rect width="320" height="90" rx="10" fill="#362D62"/>
<path d="M108.889 29V19.0469H111.951C112.826 19.0469 113.608 19.2451 114.296 19.6416C114.989 20.0335 115.529 20.5941 115.916 21.3232C116.303 22.0479 116.497 22.8727 116.497 23.7979V24.2559C116.497 25.181 116.306 26.0036 115.923 26.7236C115.545 27.4437 115.009 28.002 114.316 28.3984C113.624 28.7949 112.842 28.9954 111.972 29H108.889ZM110.939 20.708V27.3525H111.931C112.733 27.3525 113.346 27.0905 113.77 26.5664C114.193 26.0423 114.41 25.2926 114.419 24.3174V23.791C114.419 22.7793 114.209 22.0137 113.79 21.4941C113.371 20.9701 112.758 20.708 111.951 20.708H110.939ZM117.557 25.2334C117.557 24.4997 117.698 23.8457 117.98 23.2715C118.263 22.6973 118.669 22.2529 119.197 21.9385C119.73 21.624 120.348 21.4668 121.05 21.4668C122.048 21.4668 122.861 21.7721 123.49 22.3828C124.124 22.9935 124.477 23.8229 124.55 24.8711L124.563 25.377C124.563 26.5117 124.247 27.4232 123.613 28.1113C122.98 28.7949 122.13 29.1367 121.063 29.1367C119.997 29.1367 119.145 28.7949 118.507 28.1113C117.873 27.4277 117.557 26.498 117.557 25.3223V25.2334ZM119.532 25.377C119.532 26.0788 119.664 26.6165 119.929 26.9902C120.193 27.3594 120.571 27.5439 121.063 27.5439C121.542 27.5439 121.916 27.3617 122.185 26.9971C122.453 26.6279 122.588 26.04 122.588 25.2334C122.588 24.5452 122.453 24.012 122.185 23.6338C121.916 23.2555 121.537 23.0664 121.05 23.0664C120.567 23.0664 120.193 23.2555 119.929 23.6338C119.664 24.0075 119.532 24.5885 119.532 25.377ZM132.213 26.3135L133.184 21.6035H135.091L133.204 29H131.55L130.148 24.3447L128.747 29H127.1L125.213 21.6035H127.12L128.084 26.3066L129.438 21.6035H130.866L132.213 26.3135ZM137.894 21.6035L137.955 22.458C138.484 21.7972 139.192 21.4668 140.081 21.4668C140.865 21.4668 141.448 21.6969 141.831 22.1572C142.214 22.6175 142.41 23.3057 142.419 24.2217V29H140.443V24.2695C140.443 23.8503 140.352 23.5472 140.17 23.3604C139.988 23.1689 139.685 23.0732 139.261 23.0732C138.705 23.0732 138.288 23.3102 138.01 23.7842V29H136.034V21.6035H137.894ZM146.008 29H144.025V18.5H146.008V29ZM147.334 25.2334C147.334 24.4997 147.475 23.8457 147.758 23.2715C148.04 22.6973 148.446 22.2529 148.975 21.9385C149.508 21.624 150.125 21.4668 150.827 21.4668C151.825 21.4668 152.639 21.7721 153.268 22.3828C153.901 22.9935 154.254 23.8229 154.327 24.8711L154.341 25.377C154.341 26.5117 154.024 27.4232 153.391 28.1113C152.757 28.7949 151.907 29.1367 150.841 29.1367C149.774 29.1367 148.922 28.7949 148.284 28.1113C147.651 27.4277 147.334 26.498 147.334 25.3223V25.2334ZM149.31 25.377C149.31 26.0788 149.442 26.6165 149.706 26.9902C149.97 27.3594 150.349 27.5439 150.841 27.5439C151.319 27.5439 151.693 27.3617 151.962 26.9971C152.231 26.6279 152.365 26.04 152.365 25.2334C152.365 24.5452 152.231 24.012 151.962 23.6338C151.693 23.2555 151.315 23.0664 150.827 23.0664C150.344 23.0664 149.97 23.2555 149.706 23.6338C149.442 24.0075 149.31 24.5885 149.31 25.377ZM159.844 29C159.753 28.8223 159.687 28.6012 159.646 28.3369C159.167 28.8701 158.545 29.1367 157.779 29.1367C157.055 29.1367 156.453 28.9271 155.975 28.5078C155.501 28.0885 155.264 27.5599 155.264 26.9219C155.264 26.138 155.553 25.5365 156.132 25.1172C156.715 24.6979 157.556 24.486 158.654 24.4814H159.563V24.0576C159.563 23.7158 159.475 23.4424 159.297 23.2373C159.124 23.0322 158.848 22.9297 158.47 22.9297C158.137 22.9297 157.875 23.0094 157.684 23.1689C157.497 23.3285 157.403 23.5472 157.403 23.8252H155.428C155.428 23.3968 155.56 23.0003 155.824 22.6357C156.089 22.2712 156.462 21.9863 156.945 21.7812C157.428 21.5716 157.971 21.4668 158.572 21.4668C159.484 21.4668 160.206 21.6969 160.739 22.1572C161.277 22.613 161.546 23.2555 161.546 24.085V27.291C161.55 27.9928 161.648 28.5238 161.84 28.8838V29H159.844ZM158.21 27.626C158.502 27.626 158.771 27.5622 159.017 27.4346C159.263 27.3024 159.445 27.127 159.563 26.9082V25.6367H158.825C157.836 25.6367 157.31 25.9785 157.246 26.6621L157.239 26.7783C157.239 27.0244 157.326 27.2272 157.499 27.3867C157.672 27.5462 157.909 27.626 158.21 27.626ZM162.756 25.2471C162.756 24.0941 163.013 23.1758 163.528 22.4922C164.048 21.8086 164.757 21.4668 165.654 21.4668C166.374 21.4668 166.969 21.7357 167.438 22.2734V18.5H169.421V29H167.637L167.541 28.2139C167.049 28.8291 166.415 29.1367 165.641 29.1367C164.77 29.1367 164.071 28.7949 163.542 28.1113C163.018 27.4232 162.756 26.4684 162.756 25.2471ZM164.731 25.3906C164.731 26.0833 164.852 26.6143 165.094 26.9834C165.335 27.3525 165.686 27.5371 166.146 27.5371C166.757 27.5371 167.188 27.2796 167.438 26.7646V23.8457C167.192 23.3307 166.766 23.0732 166.16 23.0732C165.208 23.0732 164.731 23.8457 164.731 25.3906ZM174.131 25.2334C174.131 24.4997 174.272 23.8457 174.555 23.2715C174.837 22.6973 175.243 22.2529 175.771 21.9385C176.305 21.624 176.922 21.4668 177.624 21.4668C178.622 21.4668 179.436 21.7721 180.064 22.3828C180.698 22.9935 181.051 23.8229 181.124 24.8711L181.138 25.377C181.138 26.5117 180.821 27.4232 180.188 28.1113C179.554 28.7949 178.704 29.1367 177.638 29.1367C176.571 29.1367 175.719 28.7949 175.081 28.1113C174.448 27.4277 174.131 26.498 174.131 25.3223V25.2334ZM176.106 25.377C176.106 26.0788 176.239 26.6165 176.503 26.9902C176.767 27.3594 177.146 27.5439 177.638 27.5439C178.116 27.5439 178.49 27.3617 178.759 26.9971C179.028 26.6279 179.162 26.04 179.162 25.2334C179.162 24.5452 179.028 24.012 178.759 23.6338C178.49 23.2555 178.112 23.0664 177.624 23.0664C177.141 23.0664 176.767 23.2555 176.503 23.6338C176.239 24.0075 176.106 24.5885 176.106 25.377ZM184.173 21.6035L184.234 22.458C184.763 21.7972 185.472 21.4668 186.36 21.4668C187.144 21.4668 187.728 21.6969 188.11 22.1572C188.493 22.6175 188.689 23.3057 188.698 24.2217V29H186.723V24.2695C186.723 23.8503 186.632 23.5472 186.449 23.3604C186.267 23.1689 185.964 23.0732 185.54 23.0732C184.984 23.0732 184.567 23.3102 184.289 23.7842V29H182.313V21.6035H184.173Z" fill="white"/>
<path d="M117.734 59.7266H108.488L106.73 65H101.123L110.65 39.4062H115.537L125.117 65H119.51L117.734 59.7266ZM109.912 55.4551H116.311L113.094 45.875L109.912 55.4551ZM143.451 55.666C143.451 58.5957 142.783 60.9453 141.447 62.7148C140.123 64.4727 138.33 65.3516 136.068 65.3516C134.146 65.3516 132.594 64.6836 131.41 63.3477V72.3125H126.33V45.9805H131.041L131.217 47.8438C132.447 46.3672 134.053 45.6289 136.033 45.6289C138.377 45.6289 140.199 46.4961 141.5 48.2305C142.801 49.9648 143.451 52.3555 143.451 55.4023V55.666ZM138.371 55.2969C138.371 53.5273 138.055 52.1621 137.422 51.2012C136.801 50.2402 135.893 49.7598 134.697 49.7598C133.104 49.7598 132.008 50.3691 131.41 51.5879V59.375C132.031 60.6289 133.139 61.2559 134.732 61.2559C137.158 61.2559 138.371 59.2695 138.371 55.2969ZM163.736 55.666C163.736 58.5957 163.068 60.9453 161.732 62.7148C160.408 64.4727 158.615 65.3516 156.354 65.3516C154.432 65.3516 152.879 64.6836 151.695 63.3477V72.3125H146.615V45.9805H151.326L151.502 47.8438C152.732 46.3672 154.338 45.6289 156.318 45.6289C158.662 45.6289 160.484 46.4961 161.785 48.2305C163.086 49.9648 163.736 52.3555 163.736 55.4023V55.666ZM158.656 55.2969C158.656 53.5273 158.34 52.1621 157.707 51.2012C157.086 50.2402 156.178 49.7598 154.982 49.7598C153.389 49.7598 152.293 50.3691 151.695 51.5879V59.375C152.316 60.6289 153.424 61.2559 155.018 61.2559C157.443 61.2559 158.656 59.2695 158.656 55.2969ZM172.262 65H167.164V38H172.262V65ZM185.217 65.3516C182.428 65.3516 180.154 64.4961 178.396 62.7852C176.65 61.0742 175.777 58.7949 175.777 55.9473V55.4551C175.777 53.5449 176.146 51.8398 176.885 50.3398C177.623 48.8281 178.666 47.668 180.014 46.8594C181.373 46.0391 182.92 45.6289 184.654 45.6289C187.256 45.6289 189.301 46.4492 190.789 48.0898C192.289 49.7305 193.039 52.0566 193.039 55.0684V57.1426H180.928C181.092 58.3848 181.584 59.3809 182.404 60.1309C183.236 60.8809 184.285 61.2559 185.551 61.2559C187.508 61.2559 189.037 60.5469 190.139 59.1289L192.635 61.9238C191.873 63.002 190.842 63.8457 189.541 64.4551C188.24 65.0527 186.799 65.3516 185.217 65.3516ZM184.637 49.7422C183.629 49.7422 182.809 50.082 182.176 50.7617C181.555 51.4414 181.156 52.4141 180.98 53.6797H188.047V53.2754C188.023 52.1504 187.719 51.2832 187.133 50.6738C186.547 50.0527 185.715 49.7422 184.637 49.7422ZM218.51 58.2852C218.51 57.2891 218.158 56.5273 217.455 56C216.752 55.4609 215.486 54.8984 213.658 54.3125C211.83 53.7148 210.383 53.1289 209.316 52.5547C206.41 50.9844 204.957 48.8691 204.957 46.209C204.957 44.8262 205.344 43.5957 206.117 42.5176C206.902 41.4277 208.021 40.5781 209.475 39.9688C210.939 39.3594 212.58 39.0547 214.396 39.0547C216.225 39.0547 217.854 39.3887 219.283 40.0566C220.713 40.7129 221.82 41.6445 222.605 42.8516C223.402 44.0586 223.801 45.4297 223.801 46.9648H218.527C218.527 45.793 218.158 44.8848 217.42 44.2402C216.682 43.584 215.645 43.2559 214.309 43.2559C213.02 43.2559 212.018 43.5312 211.303 44.082C210.588 44.6211 210.23 45.3359 210.23 46.2266C210.23 47.0586 210.646 47.7559 211.479 48.3184C212.322 48.8809 213.559 49.4082 215.188 49.9004C218.188 50.8027 220.373 51.9219 221.744 53.2578C223.115 54.5938 223.801 56.2578 223.801 58.25C223.801 60.4648 222.963 62.2051 221.287 63.4707C219.611 64.7246 217.355 65.3516 214.52 65.3516C212.551 65.3516 210.758 64.9941 209.141 64.2793C207.523 63.5527 206.287 62.5625 205.432 61.3086C204.588 60.0547 204.166 58.6016 204.166 56.9492H209.457C209.457 59.7734 211.145 61.1855 214.52 61.1855C215.773 61.1855 216.752 60.9336 217.455 60.4297C218.158 59.9141 218.51 59.1992 218.51 58.2852ZM233.135 41.3047V45.9805H236.387V49.707H233.135V59.1992C233.135 59.9023 233.27 60.4062 233.539 60.7109C233.809 61.0156 234.324 61.168 235.086 61.168C235.648 61.168 236.146 61.127 236.58 61.0449V64.8945C235.584 65.1992 234.559 65.3516 233.504 65.3516C229.941 65.3516 228.125 63.5527 228.055 59.9551V49.707H225.277V45.9805H228.055V41.3047H233.135ZM237.898 55.3145C237.898 53.4277 238.262 51.7461 238.988 50.2695C239.715 48.793 240.758 47.6504 242.117 46.8418C243.488 46.0332 245.076 45.6289 246.881 45.6289C249.447 45.6289 251.539 46.4141 253.156 47.9844C254.785 49.5547 255.693 51.6875 255.881 54.3828L255.916 55.6836C255.916 58.6016 255.102 60.9453 253.473 62.7148C251.844 64.4727 249.658 65.3516 246.916 65.3516C244.174 65.3516 241.982 64.4727 240.342 62.7148C238.713 60.957 237.898 58.5664 237.898 55.543V55.3145ZM242.979 55.6836C242.979 57.4883 243.318 58.8711 243.998 59.832C244.678 60.7812 245.65 61.2559 246.916 61.2559C248.146 61.2559 249.107 60.7871 249.799 59.8496C250.49 58.9004 250.836 57.3887 250.836 55.3145C250.836 53.5449 250.49 52.1738 249.799 51.2012C249.107 50.2285 248.135 49.7422 246.881 49.7422C245.639 49.7422 244.678 50.2285 243.998 51.2012C243.318 52.1621 242.979 53.6562 242.979 55.6836ZM269.732 50.7441C269.041 50.6504 268.432 50.6035 267.904 50.6035C265.982 50.6035 264.723 51.2539 264.125 52.5547V65H259.045V45.9805H263.844L263.984 48.248C265.004 46.502 266.416 45.6289 268.221 45.6289C268.783 45.6289 269.311 45.7051 269.803 45.8574L269.732 50.7441ZM280.596 65.3516C277.807 65.3516 275.533 64.4961 273.775 62.7852C272.029 61.0742 271.156 58.7949 271.156 55.9473V55.4551C271.156 53.5449 271.525 51.8398 272.264 50.3398C273.002 48.8281 274.045 47.668 275.393 46.8594C276.752 46.0391 278.299 45.6289 280.033 45.6289C282.635 45.6289 284.68 46.4492 286.168 48.0898C287.668 49.7305 288.418 52.0566 288.418 55.0684V57.1426H276.307C276.471 58.3848 276.963 59.3809 277.783 60.1309C278.615 60.8809 279.664 61.2559 280.93 61.2559C282.887 61.2559 284.416 60.5469 285.518 59.1289L288.014 61.9238C287.252 63.002 286.221 63.8457 284.92 64.4551C283.619 65.0527 282.178 65.3516 280.596 65.3516ZM280.016 49.7422C279.008 49.7422 278.188 50.082 277.555 50.7617C276.934 51.4414 276.535 52.4141 276.359 53.6797H283.426V53.2754C283.402 52.1504 283.098 51.2832 282.512 50.6738C281.926 50.0527 281.094 49.7422 280.016 49.7422Z" fill="white"/>
<path d="M65.0562 66.1384C64.1694 65.5484 63.3835 64.8194 62.7286 63.9794C62.0082 63.1124 61.3407 62.2027 60.7298 61.2553C59.2962 59.1551 58.172 56.8598 57.3915 54.4396C56.454 51.6285 56 48.9339 56 46.2985C56 43.3551 56.6367 40.7857 57.8821 38.6267C58.8053 36.9392 60.1625 35.5291 61.8135 34.5421C63.4135 33.5483 65.252 33.0044 67.1351 32.9678C67.7943 32.9678 68.5042 33.0634 69.2576 33.2461C69.7987 33.3993 70.4579 33.6411 71.2633 33.9419C72.288 34.3369 72.8517 34.5786 73.0428 34.6377C73.643 34.8569 74.1476 34.9525 74.544 34.9525C74.8448 34.9525 75.2693 34.8569 75.7514 34.7108C76.0227 34.6152 76.5343 34.4465 77.2666 34.1331C77.9919 33.8688 78.5626 33.6425 79.0166 33.4738C79.7124 33.2686 80.3856 33.0789 80.9858 32.9833C81.6974 32.8711 82.4195 32.8414 83.1378 32.8947C84.3826 32.9761 85.6087 33.2399 86.7769 33.6777C88.6871 34.4465 90.2318 35.6469 91.3816 37.3533C90.8956 37.6528 90.4395 37.9983 90.0196 38.385C89.1054 39.1954 88.3267 40.1468 87.713 41.2032C86.9108 42.6468 86.4949 44.2731 86.5056 45.9246C86.5351 47.9528 87.0552 49.7393 88.0799 51.2841C88.8332 52.4289 89.8122 53.408 90.9571 54.1613C91.5432 54.5563 92.0479 54.8276 92.5314 55.0103C92.3051 55.7131 92.0633 56.3934 91.778 57.0681C91.1308 58.5811 90.3465 60.0316 89.4348 61.4015C88.6224 62.5808 87.9857 63.4593 87.5022 64.044C86.7488 64.9366 86.0235 65.6183 85.2912 66.0934C84.4858 66.6275 83.5342 66.9129 82.5671 66.9129C81.9122 66.938 81.2574 66.8588 80.6274 66.6781C80.0862 66.4954 79.5507 66.2972 79.0236 66.0709C78.4756 65.8192 77.9106 65.6064 77.3327 65.4342C75.9042 65.0673 74.4064 65.0649 72.9768 65.4271C72.3906 65.5958 71.827 65.7926 71.2704 66.0344C70.4875 66.3633 69.9674 66.5839 69.6666 66.6781C69.0664 66.8538 68.4437 66.9635 67.814 67C66.8399 67 65.9319 66.7217 65.0323 66.1581L65.0562 66.1384ZM77.9034 31.5397C76.6299 32.1765 75.4141 32.4478 74.2067 32.3592C74.0169 31.1434 74.2067 29.8994 74.7113 28.5374C75.1409 27.3835 75.7756 26.3168 76.5849 25.3889C77.4395 24.412 78.4766 23.6113 79.6379 23.0317C80.8748 22.395 82.0541 22.0506 83.1814 22C83.3275 23.2735 83.1814 24.5258 82.7133 25.8794C82.2801 27.076 81.6466 28.1901 80.8396 29.1741C80.016 30.1523 79.0053 30.9561 77.8668 31.5383L77.9034 31.5397Z" fill="white"/>
</svg>
