<svg width="126" height="29" viewBox="0 0 126 29" fill="none" xmlns="http://www.w3.org/2000/svg">
<path d="M6.072 23.192C5 23.192 3.952 23.064 2.928 22.808C1.904 22.536 1.088 22.2 0.48 21.8L1.728 19.112C2.304 19.48 3 19.784 3.816 20.024C4.632 20.248 5.432 20.36 6.216 20.36C7.8 20.36 8.592 19.968 8.592 19.184C8.592 18.816 8.376 18.552 7.944 18.392C7.512 18.232 6.848 18.096 5.952 17.984C4.896 17.824 4.024 17.64 3.336 17.432C2.648 17.224 2.048 16.856 1.536 16.328C1.04 15.8 0.792 15.048 0.792 14.072C0.792 13.256 1.024 12.536 1.488 11.912C1.968 11.272 2.656 10.776 3.552 10.424C4.464 10.072 5.536 9.896 6.768 9.896C7.68 9.896 8.584 10 9.48 10.208C10.392 10.4 11.144 10.672 11.736 11.024L10.488 13.688C9.352 13.048 8.112 12.728 6.768 12.728C5.968 12.728 5.368 12.84 4.968 13.064C4.568 13.288 4.368 13.576 4.368 13.928C4.368 14.328 4.584 14.608 5.016 14.768C5.448 14.928 6.136 15.08 7.08 15.224C8.136 15.4 9 15.592 9.672 15.8C10.344 15.992 10.928 16.352 11.424 16.88C11.92 17.408 12.168 18.144 12.168 19.088C12.168 19.888 11.928 20.6 11.448 21.224C10.968 21.848 10.264 22.336 9.336 22.688C8.424 23.024 7.336 23.192 6.072 23.192ZM20.982 20.192C21.654 20.192 22.246 20.096 22.758 19.904C23.286 19.696 23.774 19.376 24.222 18.944L26.214 21.104C24.998 22.496 23.222 23.192 20.886 23.192C19.43 23.192 18.142 22.912 17.022 22.352C15.902 21.776 15.038 20.984 14.43 19.976C13.822 18.968 13.518 17.824 13.518 16.544C13.518 15.28 13.814 14.144 14.406 13.136C15.014 12.112 15.838 11.32 16.878 10.76C17.934 10.184 19.118 9.896 20.43 9.896C21.662 9.896 22.782 10.16 23.79 10.688C24.798 11.2 25.598 11.952 26.19 12.944C26.798 13.92 27.102 15.08 27.102 16.424L17.55 18.272C17.822 18.912 18.246 19.392 18.822 19.712C19.414 20.032 20.134 20.192 20.982 20.192ZM20.43 12.728C19.486 12.728 18.718 13.032 18.126 13.64C17.534 14.248 17.222 15.088 17.19 16.16L23.478 14.936C23.302 14.264 22.942 13.728 22.398 13.328C21.854 12.928 21.198 12.728 20.43 12.728ZM37.4666 9.896C39.0666 9.896 40.3546 10.376 41.3306 11.336C42.3226 12.296 42.8186 13.72 42.8186 15.608V23H39.0746V16.184C39.0746 15.16 38.8506 14.4 38.4026 13.904C37.9546 13.392 37.3066 13.136 36.4586 13.136C35.5146 13.136 34.7626 13.432 34.2026 14.024C33.6426 14.6 33.3626 15.464 33.3626 16.616V23H29.6186V10.088H33.1946V11.6C33.6906 11.056 34.3066 10.64 35.0426 10.352C35.7786 10.048 36.5866 9.896 37.4666 9.896ZM59.505 5.192V23H55.929V21.512C55.001 22.632 53.657 23.192 51.897 23.192C50.681 23.192 49.577 22.92 48.585 22.376C47.609 21.832 46.841 21.056 46.281 20.048C45.721 19.04 45.441 17.872 45.441 16.544C45.441 15.216 45.721 14.048 46.281 13.04C46.841 12.032 47.609 11.256 48.585 10.712C49.577 10.168 50.681 9.896 51.897 9.896C53.545 9.896 54.833 10.416 55.761 11.456V5.192H59.505ZM52.545 20.12C53.489 20.12 54.273 19.8 54.897 19.16C55.521 18.504 55.833 17.632 55.833 16.544C55.833 15.456 55.521 14.592 54.897 13.952C54.273 13.296 53.489 12.968 52.545 12.968C51.585 12.968 50.793 13.296 50.169 13.952C49.545 14.592 49.233 15.456 49.233 16.544C49.233 17.632 49.545 18.504 50.169 19.16C50.793 19.8 51.585 20.12 52.545 20.12Z" fill="#2EC6A8"/>
<path d="M70.6022 9.896C71.8022 9.896 72.8902 10.176 73.8662 10.736C74.8582 11.28 75.6342 12.056 76.1942 13.064C76.7542 14.056 77.0342 15.216 77.0342 16.544C77.0342 17.872 76.7542 19.04 76.1942 20.048C75.6342 21.04 74.8582 21.816 73.8662 22.376C72.8902 22.92 71.8022 23.192 70.6022 23.192C68.8262 23.192 67.4742 22.632 66.5462 21.512V23H62.9702V5.192H66.7142V11.456C67.6582 10.416 68.9542 9.896 70.6022 9.896ZM69.9542 20.12C70.9142 20.12 71.6982 19.8 72.3062 19.16C72.9302 18.504 73.2422 17.632 73.2422 16.544C73.2422 15.456 72.9302 14.592 72.3062 13.952C71.6982 13.296 70.9142 12.968 69.9542 12.968C68.9942 12.968 68.2022 13.296 67.5782 13.952C66.9702 14.592 66.6662 15.456 66.6662 16.544C66.6662 17.632 66.9702 18.504 67.5782 19.16C68.2022 19.8 68.9942 20.12 69.9542 20.12ZM83.1165 11.792C83.5645 11.168 84.1645 10.696 84.9165 10.376C85.6845 10.056 86.5645 9.896 87.5565 9.896V13.352C87.1405 13.32 86.8605 13.304 86.7165 13.304C85.6445 13.304 84.8045 13.608 84.1965 14.216C83.5885 14.808 83.2845 15.704 83.2845 16.904V23H79.5405V10.088H83.1165V11.792ZM89.7827 10.088H93.5267V23H89.7827V10.088ZM91.6547 8.288C90.9667 8.288 90.4067 8.088 89.9747 7.688C89.5427 7.288 89.3267 6.792 89.3267 6.2C89.3267 5.608 89.5427 5.112 89.9747 4.712C90.4067 4.312 90.9667 4.112 91.6547 4.112C92.3427 4.112 92.9027 4.304 93.3347 4.688C93.7667 5.072 93.9827 5.552 93.9827 6.128C93.9827 6.752 93.7667 7.272 93.3347 7.688C92.9027 8.088 92.3427 8.288 91.6547 8.288ZM103.505 20.192C104.177 20.192 104.769 20.096 105.281 19.904C105.809 19.696 106.297 19.376 106.745 18.944L108.737 21.104C107.521 22.496 105.745 23.192 103.409 23.192C101.953 23.192 100.665 22.912 99.5454 22.352C98.4254 21.776 97.5614 20.984 96.9534 19.976C96.3454 18.968 96.0414 17.824 96.0414 16.544C96.0414 15.28 96.3374 14.144 96.9294 13.136C97.5374 12.112 98.3614 11.32 99.4014 10.76C100.457 10.184 101.641 9.896 102.953 9.896C104.185 9.896 105.305 10.16 106.313 10.688C107.321 11.2 108.121 11.952 108.713 12.944C109.321 13.92 109.625 15.08 109.625 16.424L100.073 18.272C100.345 18.912 100.769 19.392 101.345 19.712C101.937 20.032 102.657 20.192 103.505 20.192ZM102.953 12.728C102.009 12.728 101.241 13.032 100.649 13.64C100.057 14.248 99.7454 15.088 99.7134 16.16L106.001 14.936C105.825 14.264 105.465 13.728 104.921 13.328C104.377 12.928 103.721 12.728 102.953 12.728ZM115.79 10.376H119.102V13.256H115.886V23H112.142V9.8C112.142 8.328 112.574 7.16 113.438 6.296C114.318 5.432 115.55 5 117.134 5C117.694 5 118.222 5.064 118.718 5.192C119.23 5.304 119.654 5.472 119.99 5.696L119.006 8.408C118.574 8.104 118.07 7.952 117.494 7.952C116.358 7.952 115.79 8.576 115.79 9.824V10.376Z" fill="#362D62"/>
<path d="M122.394 23.192C121.738 23.192 121.186 22.968 120.738 22.52C120.29 22.072 120.066 21.512 120.066 20.84C120.066 20.152 120.29 19.6 120.738 19.184C121.186 18.752 121.738 18.536 122.394 18.536C123.05 18.536 123.602 18.752 124.05 19.184C124.498 19.6 124.722 20.152 124.722 20.84C124.722 21.512 124.498 22.072 124.05 22.52C123.602 22.968 123.05 23.192 122.394 23.192Z" fill="#DB2763"/>
</svg>
