<svg width="320" height="90" viewBox="0 0 320 90" fill="none" xmlns="http://www.w3.org/2000/svg">
<rect width="320" height="90" rx="10" fill="#362D62"/>
<path d="M108.889 29V19.0469H111.951C112.826 19.0469 113.608 19.2451 114.296 19.6416C114.989 20.0335 115.529 20.5941 115.916 21.3232C116.303 22.0479 116.497 22.8727 116.497 23.7979V24.2559C116.497 25.181 116.306 26.0036 115.923 26.7236C115.545 27.4437 115.009 28.002 114.316 28.3984C113.624 28.7949 112.842 28.9954 111.972 29H108.889ZM110.939 20.708V27.3525H111.931C112.733 27.3525 113.346 27.0905 113.77 26.5664C114.193 26.0423 114.41 25.2926 114.419 24.3174V23.791C114.419 22.7793 114.209 22.0137 113.79 21.4941C113.371 20.9701 112.758 20.708 111.951 20.708H110.939ZM117.557 25.2334C117.557 24.4997 117.698 23.8457 117.98 23.2715C118.263 22.6973 118.669 22.2529 119.197 21.9385C119.73 21.624 120.348 21.4668 121.05 21.4668C122.048 21.4668 122.861 21.7721 123.49 22.3828C124.124 22.9935 124.477 23.8229 124.55 24.8711L124.563 25.377C124.563 26.5117 124.247 27.4232 123.613 28.1113C122.98 28.7949 122.13 29.1367 121.063 29.1367C119.997 29.1367 119.145 28.7949 118.507 28.1113C117.873 27.4277 117.557 26.498 117.557 25.3223V25.2334ZM119.532 25.377C119.532 26.0788 119.664 26.6165 119.929 26.9902C120.193 27.3594 120.571 27.5439 121.063 27.5439C121.542 27.5439 121.916 27.3617 122.185 26.9971C122.453 26.6279 122.588 26.04 122.588 25.2334C122.588 24.5452 122.453 24.012 122.185 23.6338C121.916 23.2555 121.537 23.0664 121.05 23.0664C120.567 23.0664 120.193 23.2555 119.929 23.6338C119.664 24.0075 119.532 24.5885 119.532 25.377ZM132.213 26.3135L133.184 21.6035H135.091L133.204 29H131.55L130.148 24.3447L128.747 29H127.1L125.213 21.6035H127.12L128.084 26.3066L129.438 21.6035H130.866L132.213 26.3135ZM137.894 21.6035L137.955 22.458C138.484 21.7972 139.192 21.4668 140.081 21.4668C140.865 21.4668 141.448 21.6969 141.831 22.1572C142.214 22.6175 142.41 23.3057 142.419 24.2217V29H140.443V24.2695C140.443 23.8503 140.352 23.5472 140.17 23.3604C139.988 23.1689 139.685 23.0732 139.261 23.0732C138.705 23.0732 138.288 23.3102 138.01 23.7842V29H136.034V21.6035H137.894ZM146.008 29H144.025V18.5H146.008V29ZM147.334 25.2334C147.334 24.4997 147.475 23.8457 147.758 23.2715C148.04 22.6973 148.446 22.2529 148.975 21.9385C149.508 21.624 150.125 21.4668 150.827 21.4668C151.825 21.4668 152.639 21.7721 153.268 22.3828C153.901 22.9935 154.254 23.8229 154.327 24.8711L154.341 25.377C154.341 26.5117 154.024 27.4232 153.391 28.1113C152.757 28.7949 151.907 29.1367 150.841 29.1367C149.774 29.1367 148.922 28.7949 148.284 28.1113C147.651 27.4277 147.334 26.498 147.334 25.3223V25.2334ZM149.31 25.377C149.31 26.0788 149.442 26.6165 149.706 26.9902C149.97 27.3594 150.349 27.5439 150.841 27.5439C151.319 27.5439 151.693 27.3617 151.962 26.9971C152.231 26.6279 152.365 26.04 152.365 25.2334C152.365 24.5452 152.231 24.012 151.962 23.6338C151.693 23.2555 151.315 23.0664 150.827 23.0664C150.344 23.0664 149.97 23.2555 149.706 23.6338C149.442 24.0075 149.31 24.5885 149.31 25.377ZM159.844 29C159.753 28.8223 159.687 28.6012 159.646 28.3369C159.167 28.8701 158.545 29.1367 157.779 29.1367C157.055 29.1367 156.453 28.9271 155.975 28.5078C155.501 28.0885 155.264 27.5599 155.264 26.9219C155.264 26.138 155.553 25.5365 156.132 25.1172C156.715 24.6979 157.556 24.486 158.654 24.4814H159.563V24.0576C159.563 23.7158 159.475 23.4424 159.297 23.2373C159.124 23.0322 158.848 22.9297 158.47 22.9297C158.137 22.9297 157.875 23.0094 157.684 23.1689C157.497 23.3285 157.403 23.5472 157.403 23.8252H155.428C155.428 23.3968 155.56 23.0003 155.824 22.6357C156.089 22.2712 156.462 21.9863 156.945 21.7812C157.428 21.5716 157.971 21.4668 158.572 21.4668C159.484 21.4668 160.206 21.6969 160.739 22.1572C161.277 22.613 161.546 23.2555 161.546 24.085V27.291C161.55 27.9928 161.648 28.5238 161.84 28.8838V29H159.844ZM158.21 27.626C158.502 27.626 158.771 27.5622 159.017 27.4346C159.263 27.3024 159.445 27.127 159.563 26.9082V25.6367H158.825C157.836 25.6367 157.31 25.9785 157.246 26.6621L157.239 26.7783C157.239 27.0244 157.326 27.2272 157.499 27.3867C157.672 27.5462 157.909 27.626 158.21 27.626ZM162.756 25.2471C162.756 24.0941 163.013 23.1758 163.528 22.4922C164.048 21.8086 164.757 21.4668 165.654 21.4668C166.374 21.4668 166.969 21.7357 167.438 22.2734V18.5H169.421V29H167.637L167.541 28.2139C167.049 28.8291 166.415 29.1367 165.641 29.1367C164.77 29.1367 164.071 28.7949 163.542 28.1113C163.018 27.4232 162.756 26.4684 162.756 25.2471ZM164.731 25.3906C164.731 26.0833 164.852 26.6143 165.094 26.9834C165.335 27.3525 165.686 27.5371 166.146 27.5371C166.757 27.5371 167.188 27.2796 167.438 26.7646V23.8457C167.192 23.3307 166.766 23.0732 166.16 23.0732C165.208 23.0732 164.731 23.8457 164.731 25.3906ZM174.131 25.2334C174.131 24.4997 174.272 23.8457 174.555 23.2715C174.837 22.6973 175.243 22.2529 175.771 21.9385C176.305 21.624 176.922 21.4668 177.624 21.4668C178.622 21.4668 179.436 21.7721 180.064 22.3828C180.698 22.9935 181.051 23.8229 181.124 24.8711L181.138 25.377C181.138 26.5117 180.821 27.4232 180.188 28.1113C179.554 28.7949 178.704 29.1367 177.638 29.1367C176.571 29.1367 175.719 28.7949 175.081 28.1113C174.448 27.4277 174.131 26.498 174.131 25.3223V25.2334ZM176.106 25.377C176.106 26.0788 176.239 26.6165 176.503 26.9902C176.767 27.3594 177.146 27.5439 177.638 27.5439C178.116 27.5439 178.49 27.3617 178.759 26.9971C179.028 26.6279 179.162 26.04 179.162 25.2334C179.162 24.5452 179.028 24.012 178.759 23.6338C178.49 23.2555 178.112 23.0664 177.624 23.0664C177.141 23.0664 176.767 23.2555 176.503 23.6338C176.239 24.0075 176.106 24.5885 176.106 25.377ZM184.173 21.6035L184.234 22.458C184.763 21.7972 185.472 21.4668 186.36 21.4668C187.144 21.4668 187.728 21.6969 188.11 22.1572C188.493 22.6175 188.689 23.3057 188.698 24.2217V29H186.723V24.2695C186.723 23.8503 186.632 23.5472 186.449 23.3604C186.267 23.1689 185.964 23.0732 185.54 23.0732C184.984 23.0732 184.567 23.3102 184.289 23.7842V29H182.313V21.6035H184.173Z" fill="white"/>
<path d="M123.535 61.7656C122.586 62.9023 121.244 63.7871 119.51 64.4199C117.775 65.041 115.854 65.3516 113.744 65.3516C111.529 65.3516 109.584 64.8711 107.908 63.9102C106.244 62.9375 104.955 61.5312 104.041 59.6914C103.139 57.8516 102.676 55.6895 102.652 53.2051V51.4648C102.652 48.9102 103.08 46.7012 103.936 44.8379C104.803 42.9629 106.045 41.5332 107.662 40.5488C109.291 39.5527 111.195 39.0547 113.375 39.0547C116.41 39.0547 118.783 39.7812 120.494 41.2344C122.205 42.6758 123.219 44.7793 123.535 47.5449H118.402C118.168 46.0801 117.646 45.0078 116.838 44.3281C116.041 43.6484 114.939 43.3086 113.533 43.3086C111.74 43.3086 110.375 43.9824 109.438 45.3301C108.5 46.6777 108.025 48.6816 108.014 51.3418V52.9766C108.014 55.6602 108.523 57.6875 109.543 59.0586C110.562 60.4297 112.057 61.1152 114.025 61.1152C116.006 61.1152 117.418 60.6934 118.262 59.8496V55.4375H113.463V51.5527H123.535V61.7656ZM126.699 55.3145C126.699 53.4277 127.062 51.7461 127.789 50.2695C128.516 48.793 129.559 47.6504 130.918 46.8418C132.289 46.0332 133.877 45.6289 135.682 45.6289C138.248 45.6289 140.34 46.4141 141.957 47.9844C143.586 49.5547 144.494 51.6875 144.682 54.3828L144.717 55.6836C144.717 58.6016 143.902 60.9453 142.273 62.7148C140.645 64.4727 138.459 65.3516 135.717 65.3516C132.975 65.3516 130.783 64.4727 129.143 62.7148C127.514 60.957 126.699 58.5664 126.699 55.543V55.3145ZM131.779 55.6836C131.779 57.4883 132.119 58.8711 132.799 59.832C133.479 60.7812 134.451 61.2559 135.717 61.2559C136.947 61.2559 137.908 60.7871 138.6 59.8496C139.291 58.9004 139.637 57.3887 139.637 55.3145C139.637 53.5449 139.291 52.1738 138.6 51.2012C137.908 50.2285 136.936 49.7422 135.682 49.7422C134.439 49.7422 133.479 50.2285 132.799 51.2012C132.119 52.1621 131.779 53.6562 131.779 55.6836ZM147.055 55.3145C147.055 53.4277 147.418 51.7461 148.145 50.2695C148.871 48.793 149.914 47.6504 151.273 46.8418C152.645 46.0332 154.232 45.6289 156.037 45.6289C158.604 45.6289 160.695 46.4141 162.312 47.9844C163.941 49.5547 164.85 51.6875 165.037 54.3828L165.072 55.6836C165.072 58.6016 164.258 60.9453 162.629 62.7148C161 64.4727 158.814 65.3516 156.072 65.3516C153.33 65.3516 151.139 64.4727 149.498 62.7148C147.869 60.957 147.055 58.5664 147.055 55.543V55.3145ZM152.135 55.6836C152.135 57.4883 152.475 58.8711 153.154 59.832C153.834 60.7812 154.807 61.2559 156.072 61.2559C157.303 61.2559 158.264 60.7871 158.955 59.8496C159.646 58.9004 159.992 57.3887 159.992 55.3145C159.992 53.5449 159.646 52.1738 158.955 51.2012C158.264 50.2285 157.291 49.7422 156.037 49.7422C154.795 49.7422 153.834 50.2285 153.154 51.2012C152.475 52.1621 152.135 53.6562 152.135 55.6836ZM167.463 55.3496C167.463 52.4316 168.154 50.082 169.537 48.3008C170.932 46.5195 172.807 45.6289 175.162 45.6289C177.248 45.6289 178.871 46.3438 180.031 47.7734L180.242 45.9805H184.848V64.3672C184.848 66.0312 184.467 67.4785 183.705 68.709C182.955 69.9395 181.895 70.877 180.523 71.5215C179.152 72.166 177.547 72.4883 175.707 72.4883C174.312 72.4883 172.953 72.207 171.629 71.6445C170.305 71.0938 169.303 70.3789 168.623 69.5L170.873 66.4062C172.139 67.8242 173.674 68.5332 175.479 68.5332C176.826 68.5332 177.875 68.1699 178.625 67.4434C179.375 66.7285 179.75 65.709 179.75 64.3848V63.3652C178.578 64.6895 177.037 65.3516 175.127 65.3516C172.842 65.3516 170.99 64.4609 169.572 62.6797C168.166 60.8867 167.463 58.5137 167.463 55.5605V55.3496ZM172.543 55.7188C172.543 57.4414 172.889 58.7949 173.58 59.7793C174.271 60.752 175.221 61.2383 176.428 61.2383C177.975 61.2383 179.082 60.6582 179.75 59.498V51.5C179.07 50.3398 177.975 49.7598 176.463 49.7598C175.244 49.7598 174.283 50.2578 173.58 51.2539C172.889 52.25 172.543 53.7383 172.543 55.7188ZM194.129 65H189.031V38H194.129V65ZM207.084 65.3516C204.295 65.3516 202.021 64.4961 200.264 62.7852C198.518 61.0742 197.645 58.7949 197.645 55.9473V55.4551C197.645 53.5449 198.014 51.8398 198.752 50.3398C199.49 48.8281 200.533 47.668 201.881 46.8594C203.24 46.0391 204.787 45.6289 206.521 45.6289C209.123 45.6289 211.168 46.4492 212.656 48.0898C214.156 49.7305 214.906 52.0566 214.906 55.0684V57.1426H202.795C202.959 58.3848 203.451 59.3809 204.271 60.1309C205.104 60.8809 206.152 61.2559 207.418 61.2559C209.375 61.2559 210.904 60.5469 212.006 59.1289L214.502 61.9238C213.74 63.002 212.709 63.8457 211.408 64.4551C210.107 65.0527 208.666 65.3516 207.084 65.3516ZM206.504 49.7422C205.496 49.7422 204.676 50.082 204.043 50.7617C203.422 51.4414 203.023 52.4141 202.848 53.6797H209.914V53.2754C209.891 52.1504 209.586 51.2832 209 50.6738C208.414 50.0527 207.582 49.7422 206.504 49.7422ZM232.379 55.9824V65H227.105V39.4062H237.09C239.012 39.4062 240.699 39.7578 242.152 40.4609C243.617 41.1641 244.742 42.166 245.527 43.4668C246.312 44.7559 246.705 46.2266 246.705 47.8789C246.705 50.3867 245.844 52.3672 244.121 53.8203C242.41 55.2617 240.037 55.9824 237.002 55.9824H232.379ZM232.379 51.7109H237.09C238.484 51.7109 239.545 51.3828 240.271 50.7266C241.01 50.0703 241.379 49.1328 241.379 47.9141C241.379 46.6602 241.01 45.6465 240.271 44.873C239.533 44.0996 238.514 43.7012 237.213 43.6777H232.379V51.7109ZM255.371 65H250.273V38H255.371V65ZM270.594 65C270.359 64.543 270.189 63.9746 270.084 63.2949C268.854 64.666 267.254 65.3516 265.285 65.3516C263.422 65.3516 261.875 64.8125 260.645 63.7344C259.426 62.6562 258.816 61.2969 258.816 59.6562C258.816 57.6406 259.561 56.0938 261.049 55.0156C262.549 53.9375 264.711 53.3926 267.535 53.3809H269.873V52.291C269.873 51.4121 269.645 50.709 269.188 50.1816C268.742 49.6543 268.033 49.3906 267.061 49.3906C266.205 49.3906 265.531 49.5957 265.039 50.0059C264.559 50.416 264.318 50.9785 264.318 51.6934H259.238C259.238 50.5918 259.578 49.5723 260.258 48.6348C260.938 47.6973 261.898 46.9648 263.141 46.4375C264.383 45.8984 265.777 45.6289 267.324 45.6289C269.668 45.6289 271.525 46.2207 272.896 47.4043C274.279 48.5762 274.971 50.2285 274.971 52.3613V60.6055C274.982 62.4102 275.234 63.7754 275.727 64.7012V65H270.594ZM266.393 61.4668C267.143 61.4668 267.834 61.3027 268.467 60.9746C269.1 60.6348 269.568 60.1836 269.873 59.6211V56.3516H267.975C265.432 56.3516 264.078 57.2305 263.914 58.9883L263.896 59.2871C263.896 59.9199 264.119 60.4414 264.564 60.8516C265.01 61.2617 265.619 61.4668 266.393 61.4668ZM285.693 57.8105L289.209 45.9805H294.658L287.012 67.9531L286.59 68.9551C285.453 71.4395 283.578 72.6816 280.965 72.6816C280.227 72.6816 279.477 72.5703 278.715 72.3477V68.498L279.488 68.5156C280.449 68.5156 281.164 68.3691 281.633 68.0762C282.113 67.7832 282.488 67.2969 282.758 66.6172L283.355 65.0527L276.693 45.9805H282.16L285.693 57.8105Z" fill="white"/>
<path d="M80.5557 43.9358L63.961 27.9402L85.0743 39.592L80.5557 43.9358ZM59.6313 27C58.6532 27.4915 58 28.3878 58 29.5512V61.4488C58 62.6122 58.6545 63.5085 59.6313 64L78.9256 45.496L59.6313 27ZM91.6008 43.3067L87.1724 40.8422L82.2328 45.504L87.1724 50.1659L91.691 47.7014C93.0445 46.6686 93.0445 44.3406 91.6008 43.3067V43.3067ZM63.9623 63.069L85.0755 51.4172L80.5569 47.0734L63.9623 63.069Z" fill="white"/>
</svg>
